<?xml version="1.0" encoding="UTF-8"?>
<svg id="Layer_1" data-name="Layer 1" xmlns="http://www.w3.org/2000/svg" viewBox="0 0 145.78 174.12">
  <path d="M113.873,172.07c.423-4.896.336-39.109.378-44.847.003-1.192-1.018-3.595-1.372-4.127l1.028-1.019c-.133-7.271-.012-21.758.307-28.986-.244-17.456-.596-71.739-.341-90.077.002-1.402,1.569-3.022,2.751-3.014l29.156.187-.059,173.817-30.372.116c-.724.003-1.927-2.075-1.477-2.05h.001Z" fill="#bd5bef"/>
  <path d="M32.841,3.115c-.027-.134-.892,1.69-.892,2.38.354,1.789-.946,45.759,1.01,45.583-.507.763-.905,2.675-.999,4-.277.368-1.009,2.179-1.009,2.925l.015,86.008.994,1.067-.055,27.994-31.905-.063L.008.202,30.873.011c.687,1.073,1.499,2.458,1.968,3.104Z" fill="#bf5bf1"/>
  <path d="M113.742,67.078c.897,11.135.405,28.768.087,39.916-.031-.942-6.105,9.289-5.219,9.092-7.188,4.732-6.651,7.223-16.657,12.131l-5.847,2.869c-23.263,4.486-42.026-3.535-54.045-24.008l.024-40c1.953-2.547,4.756-6.367,5.945-9.178,8.123-6.281,8.75-8.717,19.782-13.199.545-.221,1.826-1.16,2.119-1.434,23.486-4.197,41.439,3.502,53.812,23.811h0ZM75.016,64.576c4.197,15.332,26.098,7.266,19.938-7.077-4.98-10.589-22.932-6.002-19.938,7.077ZM45.909,65.691c-13.472,5.448-5.425,24.487,7.302,19.987,12.655-4.743,6.4-24.434-7.302-19.987ZM71.296,79.483c-10.59,2.389-6.625,18.393,3.874,15.413,9.24-2.643,6.586-17.064-3.874-15.413ZM100.239,108.858c13.16-4.783,5.439-24.676-7.521-19.943-12.783,5.411-5.926,24.462,7.521,19.943ZM68.085,119.827c8.564-9.267-2.044-22.574-12.91-16.585-13.465,8.393,1.461,27.769,12.91,16.585Z" fill="#fdfdfd"/>
  <path d="M59.93,43.267c-.294.273-1.575,1.213-2.119,1.434-11.033,4.481-11.66,6.918-19.782,13.199-2.406-3.454-6.053-6.354-6.071-10.943l-.009-41.462c0-.69.865-2.514.892-2.38,7.113,9.799,19.935,29.115,27.089,40.152Z" fill="#8b43ae"/>
  <path d="M108.609,116.086c1.475,2.84,5.453,7.701,5.642,11.138-.045,5.895.048,39.775-.379,44.846l-27.768-40.984,5.847-2.869c10.006-4.908,9.469-7.4,16.657-12.131h0Z" fill="#8b43ae"/>
  <path d="M32.083,67.078c.005,19.455-.053,58.592-.123,78l-.994-1.067-.015-86.008c0-.746.732-2.557,1.009-2.925,0,0,.123,12,.123,12Z" fill="#bd5bef"/>
  <path d="M75.016,64.576c-2.993-13.081,14.96-17.666,19.938-7.077,6.159,14.347-15.744,22.406-19.938,7.077Z" fill="#bd5bef"/>
  <path d="M68.085,119.827c-11.453,11.185-26.373-8.195-12.909-16.585,10.866-5.988,21.473,7.318,12.909,16.585Z" fill="#bd5bef"/>
  <path d="M100.239,108.858c-13.448,4.519-20.304-14.533-7.52-19.943,12.961-4.731,20.68,15.162,7.52,19.943Z" fill="#bd5bef"/>
  <path d="M45.909,65.691c13.704-4.446,19.956,15.246,7.301,19.987-12.729,4.498-20.772-14.542-7.301-19.987Z" fill="#bd5bef"/>
  <path d="M71.296,79.483c10.462-1.651,13.112,12.772,3.873,15.413-10.499,2.98-14.463-13.024-3.873-15.413Z" fill="#8b43ae"/>
</svg>