<?xml version="1.0" encoding="UTF-8"?>
<svg id="Layer_1" data-name="Layer 1" xmlns="http://www.w3.org/2000/svg" viewBox="0 0 775.118 174.121">
  <path d="M653.089,135.154c-2.69,4.367-23.824,5.609-23.842-5.39l-.088-54.893c-3.95,2.884-19.553,26.272-22.85,30.433-1.791,2.495-7.214,3.918-9.992,4.93-6.356-.718-9.955-4.293-13.318-8.894l-19.587-26.798-.191,54.586c-.007,2.118-1.679,5.011-2.844,7.126-5.662,2.37-17.627,3.542-21.567-1.609-5.055-2.085-1.337-92.478-2.388-98.299,1.006-4.169,3.389-8.007,7.965-8.188,10.697-.422,12.946-1.294,18.705,5.078,8.159,10.82,24.713,32.635,32.935,43.446,7.506-9.843,23.569-31.133,30.962-40.782,6.047-9.252,9.447-7.907,19.445-7.888,6.716.016,9.682,5.683,9.684,10.073-1.185,8.191,3.117,92.05-3.029,97.069Z" fill="#fdfdfd"/>
  <path d="M380.306,136.653c-6.408,1.852-16.48,2.902-21.441-.933-12.318-15.502-32.055-44.393-45.262-58.824l-.085,48.282c-.006,3.356-.592,8.263-3.178,10.586-3.573,3.21-16.868,3.623-21.004-.42-2.077-2.031-2.726-6.198-2.724-9.29l.071-88.862c.003-4.069,3.174-8.485,7.013-8.824,15.502-1.367,15.74-.355,23.433,10.036,11.005,14.016,27.308,38.751,39.358,51.872,0,0,.13-53.97.13-53.97,1.072-4.574,3.935-8.353,8.92-8.243,7.992.487,15.547-1.979,17.993,8.28,0,0-.061,92.737-.061,92.737-.001,2.07-1.969,4.874-3.162,7.574Z" fill="#fdfdfd"/>
  <path d="M254.78,129.238c-32.002,26.026-82.337,2.622-86.744-37.159C159.462,17.341,262.686.046,276.352,74.194c2.536,22.163-4.458,40.994-21.572,55.043ZM244.912,101.207c12.277-17.861,2.148-46.008-20.027-48.097-16.884-1.931-31.793,13.585-30.186,30.02-1.738,28.187,33.364,41.519,50.213,18.077Z" fill="#fdfdfd"/>
  <path d="M740.791,115.076l-42.216.003-9.481,19.105c-.97,1.955-4.711,5.686-6.888,5.528-6.975-.506-21.427-6.713-17.71-15.122,0,0,2.559-5.79,2.559-5.79,6.856-14.222,21.378-44.2,28.298-58.583,0,0,13.212-26.826,13.212-26.826,1.915-3.888,7.224-5.822,11.028-5.826,3.885-.005,9.106,1.922,11.018,5.812,0,0,9.26,18.841,9.26,18.841,7.713,16.074,24.046,49.788,31.978,65.961,1.212,2.486,2.213,5.322,3.065,8.189,1.96,6.597-10.603,13.433-17.685,13.48-2.852.019-5.665-2.692-6.977-4.793l-9.459-19.981ZM728.714,92.127c-.019-2.924-7.871-17.393-9.07-20.177-1.478,2.266-8.594,17.403-9.979,20.127l19.049.05Z" fill="#fdfdfd"/>
  <path d="M473.623,104.242c4.515-1.867,16.537,12.47,13.725,20.642-31.477,31.512-89.187,9.025-93.978-34.741-.998-17.905,3.031-37.055,17.481-48.532,16.985-14.416,43.326-19.819,63.549-9.485,4.406,2.336,14.825,7.939,13.798,13.584-1.526,8.387-10.219,16.931-14.305,15.927-3.723-.915-6.355-2.687-9.615-4.571-12.17-7.033-25.931-3.984-36.005,4.771-20.032,20.6-2.929,55.24,26.395,50.733,10.228-1.992,9.271-4.323,18.955-8.328Z" fill="#fdfdfd"/>
  <path d="M113.873,172.07c.423-4.896.336-39.109.378-44.847.003-1.192-1.018-3.595-1.372-4.127l1.028-1.019c-.133-7.271-.012-21.758.307-28.986-.244-17.456-.596-71.739-.341-90.077.002-1.402,1.569-3.022,2.751-3.014,0,0,29.156.187,29.156.187l-.059,173.817-30.372.116c-.724.003-1.927-2.075-1.477-2.05Z" fill="#bd5bef"/>
  <path d="M32.841,3.115c-.027-.134-.892,1.69-.892,2.38.354,1.789-.946,45.759,1.01,45.583-.507.763-.905,2.675-.999,4-.277.368-1.009,2.179-1.009,2.925l.015,86.008.994,1.067-.055,27.994-31.905-.063L.008.202,30.873.011c.687,1.073,1.499,2.458,1.968,3.104Z" fill="#bf5bf1"/>
  <path d="M113.742,67.078c.897,11.135.405,28.768.087,39.916-.031-.942-6.105,9.289-5.219,9.092-7.188,4.732-6.651,7.223-16.657,12.131l-5.847,2.869c-23.263,4.486-42.026-3.535-54.045-24.008l.024-40c1.953-2.547,4.756-6.367,5.945-9.178,8.123-6.281,8.75-8.717,19.782-13.199.545-.221,1.826-1.16,2.119-1.434,23.486-4.197,41.439,3.502,53.812,23.811ZM75.016,64.576c4.197,15.332,26.098,7.266,19.938-7.077-4.98-10.589-22.932-6.002-19.938,7.077ZM45.909,65.691c-13.472,5.448-5.425,24.487,7.302,19.987,12.655-4.743,6.4-24.434-7.302-19.987ZM71.296,79.483c-10.59,2.389-6.625,18.393,3.874,15.413,9.24-2.643,6.586-17.064-3.874-15.413ZM100.239,108.858c13.16-4.783,5.439-24.676-7.521-19.943-12.783,5.411-5.926,24.462,7.521,19.943ZM68.085,119.827c8.564-9.267-2.044-22.574-12.91-16.585-13.465,8.393,1.461,27.769,12.91,16.585Z" fill="#fdfdfd"/>
  <path d="M509.481,138.249c-9.788-.188-10.489-3.958-11.972-12.277,0,0-.018-86.799-.018-86.799l1.959-7.413c.56-2.118,5.507-3.92,7.65-3.91,6.754.063,17.066-1.426,17.244,8.269,0,0,.008,94.822.008,94.822-2.937,7.748-8.047,7.095-14.87,7.309Z" fill="#fdfdfd"/>
  <path d="M59.93,43.267c-.294.273-1.575,1.213-2.119,1.434-11.033,4.481-11.66,6.918-19.782,13.199-2.406-3.454-6.053-6.354-6.071-10.943,0,0-.009-41.462-.009-41.462,0-.69.865-2.514.892-2.38,7.113,9.799,19.935,29.115,27.089,40.152Z" fill="#8b43ae"/>
  <path d="M108.609,116.086c1.475,2.84,5.453,7.701,5.642,11.138-.045,5.895.048,39.775-.379,44.846l-27.768-40.984,5.847-2.869c10.006-4.908,9.469-7.4,16.657-12.131Z" fill="#8b43ae"/>
  <path d="M32.083,67.078c.005,19.455-.053,58.592-.123,78l-.994-1.067-.015-86.008c0-.746.732-2.557,1.009-2.925l.123,12Z" fill="#bd5bef"/>
  <path d="M75.016,64.576c-2.993-13.081,14.96-17.666,19.938-7.077,6.159,14.347-15.744,22.406-19.938,7.077Z" fill="#bd5bef"/>
  <path d="M68.085,119.827c-11.453,11.185-26.373-8.195-12.909-16.585,10.866-5.988,21.473,7.318,12.909,16.585Z" fill="#bd5bef"/>
  <path d="M100.239,108.858c-13.448,4.519-20.304-14.533-7.52-19.943,12.961-4.731,20.68,15.162,7.52,19.943Z" fill="#bd5bef"/>
  <path d="M45.909,65.691c13.704-4.446,19.956,15.246,7.301,19.987-12.729,4.498-20.772-14.542-7.301-19.987Z" fill="#bd5bef"/>
  <path d="M71.296,79.483c10.462-1.651,13.112,12.772,3.873,15.413-10.499,2.98-14.463-13.024-3.873-15.413Z" fill="#8b43ae"/>
</svg>