<?xml version="1.0" encoding="UTF-8"?>
<svg id="Layer_1" data-name="Layer 1" xmlns="http://www.w3.org/2000/svg" viewBox="0 0 342 513">
  <rect width="342" height="513" fill="#1a1a1a"/>
  <path d="M253.107,271.372c-.832,1.35-7.367,1.734-7.372-1.667l-.027-16.974c-1.222.892-6.046,8.124-7.066,9.41-.554.771-2.231,1.212-3.09,1.524-1.965-.222-3.078-1.327-4.118-2.75l-6.057-8.286-.059,16.879c-.002.655-.519,1.549-.879,2.203-1.751.733-5.451,1.095-6.669-.497-1.563-.645-.414-28.596-.738-30.396.311-1.289,1.048-2.476,2.463-2.532,3.308-.131,4.003-.4,5.784,1.57,2.523,3.346,7.642,10.091,10.184,13.434,2.321-3.044,7.288-9.627,9.574-12.611,1.87-2.861,2.921-2.445,6.013-2.439,2.077.005,2.994,1.757,2.994,3.115-.367,2.533.964,28.464-.937,30.016Z" fill="#fdfdfd"/>
  <path d="M168.757,271.835c-1.981.573-5.096.897-6.63-.289-3.809-4.793-9.912-13.727-13.996-18.19l-.026,14.93c-.002,1.038-.183,2.555-.983,3.273-1.105.993-5.216,1.12-6.495-.13-.642-.628-.843-1.917-.842-2.873l.022-27.478c.001-1.258.982-2.624,2.168-2.728,4.794-.423,4.867-.11,7.246,3.103,3.403,4.334,8.444,11.983,12.17,16.04,0,0,.04-16.689.04-16.689.331-1.414,1.217-2.583,2.758-2.549,2.471.15,4.808-.612,5.564,2.56,0,0-.019,28.676-.019,28.676,0,.64-.609,1.507-.978,2.342Z" fill="#fdfdfd"/>
  <path d="M129.942,269.542c-9.896,8.048-25.46.811-26.823-11.49-2.651-23.11,29.268-28.458,33.493-5.53.784,6.853-1.378,12.676-6.67,17.02ZM126.891,260.875c3.796-5.523.664-14.226-6.193-14.873-5.221-.597-9.831,4.201-9.334,9.283-.537,8.716,10.317,12.838,15.527,5.59Z" fill="#fdfdfd"/>
  <path d="M280.226,265.163h-13.054s-2.932,5.909-2.932,5.909c-.3.604-1.457,1.758-2.13,1.709-2.157-.157-6.626-2.076-5.476-4.676,0,0,.791-1.79.791-1.79,2.12-4.398,6.61-13.668,8.75-18.115,0,0,4.085-8.295,4.085-8.295.592-1.202,2.234-1.8,3.41-1.802,1.201-.001,2.816.594,3.407,1.797l2.863,5.826c2.385,4.97,7.436,15.395,9.888,20.396.375.769.684,1.646.948,2.532.606,2.04-3.279,4.154-5.469,4.168-.882.006-1.752-.832-2.158-1.482l-2.925-6.179ZM276.492,258.067c-.006-.904-2.434-5.378-2.805-6.239-.457.701-2.657,5.381-3.086,6.224l5.89.015Z" fill="#fdfdfd"/>
  <path d="M197.613,261.813c1.396-.577,5.114,3.856,4.244,6.383-9.733,9.744-27.578,2.791-29.06-10.743-.309-5.537.937-11.458,5.405-15.007,5.252-4.458,13.397-6.128,19.651-2.933,1.362.722,4.584,2.455,4.267,4.2-.472,2.594-3.16,5.235-4.423,4.925-1.151-.283-1.965-.831-2.973-1.413-3.763-2.175-8.018-1.232-11.134,1.475-6.194,6.37-.906,17.081,8.162,15.688,3.163-.616,2.867-1.337,5.861-2.575Z" fill="#fdfdfd"/>
  <path d="M86.371,282.787c.131-1.514.104-12.093.117-13.867,0-.369-.315-1.112-.424-1.276l.318-.315c-.041-2.248-.004-6.728.095-8.963-.075-5.398-.184-22.183-.105-27.854,0-.434.485-.934.851-.932,0,0,9.016.058,9.016.058l-.018,53.747-9.391.036c-.224,0-.596-.642-.457-.634Z" fill="#bd5bef"/>
  <path d="M61.314,230.542c-.008-.041-.276.523-.276.736.109.553-.292,14.15.312,14.095-.157.236-.28.827-.309,1.237-.086.114-.312.674-.312.905l.005,26.595.307.33-.017,8.656-9.866-.02.002-53.435,9.544-.059c.212.332.463.76.608.96Z" fill="#bf5bf1"/>
  <path d="M86.33,250.321c.278,3.443.125,8.896.027,12.343-.009-.291-1.888,2.872-1.614,2.811-2.223,1.463-2.057,2.233-5.151,3.751l-1.808.887c-7.193,1.387-12.995-1.093-16.712-7.424l.007-12.369c.604-.788,1.471-1.969,1.838-2.838,2.512-1.942,2.706-2.696,6.117-4.081.168-.068.565-.359.655-.443,7.262-1.298,12.814,1.083,16.64,7.363ZM74.355,249.547c1.298,4.741,8.07,2.247,6.165-2.188-1.54-3.274-7.091-1.856-6.165,2.188ZM65.355,249.892c-4.166,1.685-1.678,7.572,2.258,6.18,3.913-1.467,1.979-7.555-2.258-6.18ZM73.205,254.157c-3.275.739-2.049,5.688,1.198,4.766,2.857-.817,2.037-5.277-1.198-4.766ZM82.155,263.24c4.069-1.479,1.682-7.63-2.326-6.167-3.953,1.673-1.833,7.564,2.326,6.167ZM72.212,266.632c2.648-2.866-.632-6.98-3.992-5.128-4.164,2.595.452,8.587,3.992,5.128Z" fill="#fdfdfd"/>
  <path d="M208.701,272.329c-3.027-.058-3.243-1.224-3.702-3.796,0,0-.006-26.84-.006-26.84l.606-2.292c.173-.655,1.703-1.212,2.365-1.209,2.088.019,5.277-.441,5.332,2.557,0,0,.003,29.321.003,29.321-.908,2.396-2.488,2.194-4.598,2.26Z" fill="#fdfdfd"/>
  <path d="M69.691,242.958c-.091.085-.487.375-.655.443-3.411,1.386-3.605,2.139-6.117,4.081-.744-1.068-1.872-1.965-1.877-3.384,0,0-.003-12.821-.003-12.821,0-.213.268-.777.276-.736,2.199,3.03,6.164,9.003,8.377,12.416Z" fill="#8b43ae"/>
  <path d="M84.743,265.475c.456.878,1.686,2.381,1.745,3.444-.014,1.823.015,12.299-.117,13.867l-8.587-12.673,1.808-.887c3.094-1.518,2.928-2.288,5.151-3.751Z" fill="#8b43ae"/>
  <path d="M61.08,250.321c.002,6.016-.017,18.118-.038,24.119l-.307-.33-.005-26.595c0-.231.226-.791.312-.905l.038,3.711Z" fill="#bd5bef"/>
  <path d="M74.355,249.547c-.926-4.045,4.626-5.463,6.165-2.188,1.905,4.436-4.868,6.928-6.165,2.188Z" fill="#bd5bef"/>
  <path d="M72.212,266.632c-3.541,3.459-8.155-2.534-3.992-5.128,3.36-1.852,6.64,2.263,3.992,5.128Z" fill="#bd5bef"/>
  <path d="M82.155,263.24c-4.158,1.397-6.278-4.494-2.325-6.167,4.008-1.463,6.395,4.688,2.325,6.167Z" fill="#bd5bef"/>
  <path d="M65.355,249.892c4.237-1.375,6.171,4.714,2.258,6.181-3.936,1.391-6.423-4.497-2.258-6.181Z" fill="#bd5bef"/>
  <path d="M73.205,254.157c3.235-.51,4.055,3.949,1.198,4.766-3.246.921-4.472-4.027-1.198-4.766Z" fill="#8b43ae"/>
</svg>